<?xml version="1.0" encoding="UTF-8"?>
<svg width="16px" height="16px" viewBox="0 0 16 16" version="1.1" xmlns="http://www.w3.org/2000/svg" xmlns:xlink="http://www.w3.org/1999/xlink">
    <!-- Generator: Sketch 52.5 (67469) - http://www.bohemiancoding.com/sketch -->
    <title>linkedin</title>
    <desc>Created with Sketch.</desc>
    <g id="linkedin" stroke="none" stroke-width="1" fill="none" fill-rule="evenodd">
        <g fill="#111111" fill-rule="nonzero" id="Shape">
            <path d="M4.37524413,13.21875 L3.43774413,13.21875 C3.09252931,13.21875 2.81274413,12.9389648 2.81274413,12.59375 L2.81274413,6.78125 C2.81274413,6.43603516 3.09252931,6.15625 3.43774413,6.15625 L4.37524413,6.15625 C4.720459,6.15625 5.00024413,6.43603516 5.00024413,6.78125 L5.00024413,12.59375 C5.00024413,12.9389648 4.720459,13.21875 4.37524413,13.21875 Z M5.21850588,3.90612794 C5.21850588,3.19897463 4.64477538,2.625 3.93798828,2.625 C3.22851563,2.625 2.65625,3.19897463 2.65625,3.90612794 C2.65625,4.61352538 3.22851563,5.1875 3.93798828,5.1875 C4.64477538,5.1875 5.21850588,4.61352538 5.21850588,3.90612794 Z M13.1875,12.59375 L13.1875,9.33325194 C13.1875,7.43737794 12.7869873,6.03125 10.5722656,6.03125 C9.50805663,6.03125 8.79370119,6.56347656 8.50207519,7.11694338 L8.5,7.11694338 L8.5,6.78125 C8.5,6.43603516 8.22021484,6.15625 7.875,6.15625 L7,6.15625 C6.65478516,6.15625 6.375,6.43603516 6.375,6.78125 L6.375,12.59375 C6.375,12.9389648 6.65478516,13.21875 7,13.21875 L7.875,13.21875 C8.22021484,13.21875 8.5,12.9389648 8.5,12.59375 L8.5,9.71215819 C8.5,8.79382325 8.73376466,7.90417481 9.87207031,7.90417481 C10.9948731,7.90417481 11.03125,8.95434569 11.03125,9.77050781 L11.03125,12.59375 C11.03125,12.9389648 11.3110352,13.21875 11.65625,13.21875 L12.5625,13.21875 C12.9077148,13.21875 13.1875,12.9389648 13.1875,12.59375 Z M16,13.5 C16,13.1547852 15.7202148,12.875 15.375,12.875 C15.0297852,12.875 14.75,13.1547852 14.75,13.5 C14.75,14.189209 14.189209,14.75 13.5,14.75 L2.5,14.75 C1.810791,14.75 1.25,14.189209 1.25,13.5 L1.25,2.5 C1.25,1.810791 1.810791,1.25 2.5,1.25 L13.5,1.25 C14.189209,1.25 14.75,1.810791 14.75,2.5 L14.75,10.34375 C14.75,10.6889648 15.0297852,10.96875 15.375,10.96875 C15.7202148,10.96875 16,10.6889648 16,10.34375 L16,2.5 C16,1.12145997 14.87854,0 13.5,0 L2.5,0 C1.12145997,0 0,1.12145997 0,2.5 L0,13.5 C0,14.87854 1.12145997,16 2.5,16 L13.5,16 C14.87854,16 16,14.87854 16,13.5 Z"></path>
        </g>
    </g>
</svg>