<?xml version="1.0" encoding="UTF-8"?>
<svg width="1281px" height="890px" viewBox="0 0 1281 890" version="1.1" xmlns="http://www.w3.org/2000/svg" xmlns:xlink="http://www.w3.org/1999/xlink">
    <!-- Generator: Sketch 62 (91390) - https://sketch.com -->
    <title>8 copy 2</title>
    <desc>Created with Sketch.</desc>
    <g id="8-copy-2" stroke="none" stroke-width="1" fill="none" fill-rule="evenodd" transform="translate(1.000000, 0.000000)">
        <rect fill="#FFFFFF" x="0" y="0" width="1280" height="890"></rect>
        <path d="M816.145479,435.926066 L649.167671,261.401238 C648.022269,260.204066 646.123238,260.162099 644.926066,261.307501 C644.334548,261.87344 644,262.656527 644,263.475172 L644,307.647068 C644,308.423397 644.300946,309.169499 644.839588,309.728563 L770.430836,440.081494 C770.996313,440.66841 771.776243,441 772.591248,441 L813.977808,441 C815.634663,441 816.977808,439.656854 816.977808,438 C816.977808,437.227296 816.679659,436.484389 816.145479,435.926066 Z" id="Rectangle-Copy-22" fill="#F55951"></path>
        <path d="M816.145479,455.073934 L649.167671,629.598762 C648.022269,630.795934 646.123238,630.837901 644.926066,629.692499 C644.334548,629.12656 644,628.343473 644,627.524828 L644,583.352932 C644,582.576603 644.300946,581.830501 644.839588,581.271437 L770.430836,450.918506 C770.996313,450.33159 771.776243,450 772.591248,450 L813.977808,450 C815.634663,450 816.977808,451.343146 816.977808,453 C816.977808,453.772704 816.679659,454.515611 816.145479,455.073934 Z" id="Rectangle-Copy-24" fill="#F55951"></path>
        <path d="M462.854521,435.926066 L629.832329,261.401238 C630.977731,260.204066 632.876762,260.162099 634.073934,261.307501 C634.665452,261.87344 635,262.656527 635,263.475172 L635,307.647068 C635,308.423397 634.699054,309.169499 634.160412,309.728563 L508.569164,440.081494 C508.003687,440.66841 507.223757,441 506.408752,441 L465.022192,441 C463.365337,441 462.022192,439.656854 462.022192,438 C462.022192,437.227296 462.320341,436.484389 462.854521,435.926066 Z" id="Rectangle-Copy-23" fill="#F55951"></path>
        <path d="M462.854521,455.073934 L629.832329,629.598762 C630.977731,630.795934 632.876762,630.837901 634.073934,629.692499 C634.665452,629.12656 635,628.343473 635,627.524828 L635,583.352932 C635,582.576603 634.699054,581.830501 634.160412,581.271437 L508.569164,450.918506 C508.003687,450.33159 507.223757,450 506.408752,450 L465.022192,450 C463.365337,450 462.022192,451.343146 462.022192,453 C462.022192,453.772704 462.320341,454.515611 462.854521,455.073934 Z" id="Rectangle-Copy-25" fill="#F55951"></path>
        <path d="M638.770611,318.777676 L622.270611,336.37001 C622.096758,336.555373 622,336.799975 622,337.05411 L622,553.94589 C622,554.200025 622.096758,554.444627 622.270611,554.62999 L638.770611,572.222324 C639.148429,572.625155 639.78127,572.645431 640.1841,572.267613 C640.199676,572.253004 640.21478,572.2379 640.229389,572.222324 L656.729389,554.62999 C656.903242,554.444627 657,554.200025 657,553.94589 L657,337.05411 C657,336.799975 656.903242,336.555373 656.729389,336.37001 L640.229389,318.777676 C639.851571,318.374845 639.21873,318.354569 638.8159,318.732387 C638.800324,318.746996 638.78522,318.7621 638.770611,318.777676 Z" id="Path-2" fill="#F55951"></path>
        <path d="M638.771821,320.773642 L622.271821,338.3038 C622.097222,338.489301 622,338.734442 622,338.989188 L622,552.010812 C622,552.265558 622.097222,552.510699 622.271821,552.6962 L638.771821,570.226358 C639.15035,570.62852 639.783225,570.647679 640.185387,570.26915 C640.20008,570.255321 640.21435,570.241051 640.228179,570.226358 L656.728179,552.6962 C656.902778,552.510699 657,552.265558 657,552.010812 L657,338.989188 C657,338.734442 656.902778,338.489301 656.728179,338.3038 L640.228179,320.773642 C639.84965,320.37148 639.216775,320.352321 638.814613,320.73085 C638.79992,320.744679 638.78565,320.758949 638.771821,320.773642 Z" id="Path-2-Copy" fill="#F55951" transform="translate(639.500000, 445.500000) rotate(-90.000000) translate(-639.500000, -445.500000) "></path>
    </g>
</svg>