<?xml version="1.0" encoding="UTF-8"?>
<svg width="1280px" height="890px" viewBox="0 0 1280 890" version="1.1" xmlns="http://www.w3.org/2000/svg" xmlns:xlink="http://www.w3.org/1999/xlink">
    <!-- Generator: Sketch 62 (91390) - https://sketch.com -->
    <title>8 copy</title>
    <desc>Created with Sketch.</desc>
    <g id="8-copy" stroke="none" stroke-width="1" fill="none" fill-rule="evenodd">
        <rect fill="#FFFFFF" x="0" y="0" width="1280" height="890"></rect>
        <path d="M560.44865,282 L730,282 C734.970563,282 739,286.029437 739,291 L739,301 C739,305.970563 734.970563,310 730,310 L571.824132,310 C569.380435,310 567.041791,309.006302 565.345534,307.24722 L554.5,296 C551.331985,292.714651 551.427103,287.483166 554.712452,284.315151 C556.252691,282.829921 558.308967,282 560.44865,282 Z" id="Rectangle" fill="#F55951"></path>
        <path d="M550,581 L708.175868,581 C710.619565,581 712.958209,581.993698 714.654466,583.75278 L725.5,595 C728.668015,598.285349 728.572897,603.516834 725.287548,606.684849 C723.747309,608.170079 721.691033,609 719.55135,609 L550,609 C545.029437,609 541,604.970563 541,600 L541,590 C541,585.029437 545.029437,581 550,581 Z" id="Rectangle-Copy" fill="#F55951"></path>
        <path d="M518.044778,362 L604,362 C608.970563,362 613,366.029437 613,371 L613,381 C613,385.970563 608.970563,390 604,390 L511.561261,390 C506.590699,390 502.561261,385.970563 502.561261,381 C502.561261,379.262359 503.064282,377.56187 504.009586,376.103859 L510.493103,366.103859 C512.152342,363.544693 514.994793,362 518.044778,362 Z" id="Rectangle-Copy-4" fill="#F55951" transform="translate(554.000000, 376.000000) rotate(-90.000000) translate(-554.000000, -376.000000) "></path>
        <path d="M676,499 L761.955222,499 C765.005207,499 767.847658,500.544693 769.506897,503.103859 L775.990414,513.103859 C778.694478,517.274534 777.505555,522.847611 773.33488,525.551675 C771.876868,526.496979 770.17638,527 768.438739,527 L676,527 C671.029437,527 667,522.970563 667,518 L667,508 C667,503.029437 671.029437,499 676,499 Z" id="Rectangle-Copy-5" fill="#F55951" transform="translate(726.000000, 513.000000) rotate(-90.000000) translate(-726.000000, -513.000000) "></path>
        <rect id="Rectangle-Copy-2" fill="#F55951" x="629" y="431" width="28" height="28" rx="9"></rect>
        <path d="M739,327 L739,439.086439 C739,442.148813 737.442821,445.001043 734.866818,446.657045 L724.866818,453.085617 C720.685688,455.773486 715.117263,454.562959 712.429394,450.381829 C711.496173,448.930153 711,447.240775 711,445.515011 L711,327 C711,322.029437 715.029437,318 720,318 L730,318 C734.970563,318 739,322.029437 739,327 Z" id="Path" fill="#F55951"></path>
        <path d="M569,436 L569,548.086439 C569,551.148813 567.442821,554.001043 564.866818,555.657045 L554.866818,562.085617 C550.685688,564.773486 545.117263,563.562959 542.429394,559.381829 C541.496173,557.930153 541,556.240775 541,554.515011 L541,436 C541,431.029437 545.029437,427 550,427 L560,427 C564.970563,427 569,431.029437 569,436 Z" id="Path-Copy" fill="#F55951" transform="translate(555.000000, 499.000000) scale(1, -1) translate(-555.000000, -499.000000) "></path>
    </g>
</svg>